<?xml version="1.0" encoding="UTF-8" standalone="no"?>
<svg
   xmlns:dc="http://purl.org/dc/elements/1.1/"
   xmlns:cc="http://creativecommons.org/ns#"
   xmlns:rdf="http://www.w3.org/1999/02/22-rdf-syntax-ns#"
   xmlns:svg="http://www.w3.org/2000/svg"
   xmlns="http://www.w3.org/2000/svg"
   xmlns:sodipodi="http://sodipodi.sourceforge.net/DTD/sodipodi-0.dtd"
   xmlns:inkscape="http://www.inkscape.org/namespaces/inkscape"
   width="210mm"
   height="210mm"
   viewBox="0 0 210 210"
   version="1.1"
   id="svg8440"
   inkscape:version="1.0.1 (3bc2e813f5, 2020-09-07)"
   sodipodi:docname="philladephia-fliers-emblem.svg">
  <defs
     id="defs8434" />
  <sodipodi:namedview
     id="base"
     pagecolor="#ffffff"
     bordercolor="#666666"
     borderopacity="1.0"
     inkscape:pageopacity="0.0"
     inkscape:pageshadow="2"
     inkscape:zoom="0.35"
     inkscape:cx="400"
     inkscape:cy="560"
     inkscape:document-units="mm"
     inkscape:current-layer="layer1"
     inkscape:document-rotation="0"
     showgrid="false"
     inkscape:window-width="1431"
     inkscape:window-height="1030"
     inkscape:window-x="32"
     inkscape:window-y="0"
     inkscape:window-maximized="0" />
  <metadata
     id="metadata8437">
    <rdf:RDF>
      <cc:Work
         rdf:about="">
        <dc:format>image/svg+xml</dc:format>
        <dc:type
           rdf:resource="http://purl.org/dc/dcmitype/StillImage" />
        <dc:title></dc:title>
      </cc:Work>
    </rdf:RDF>
  </metadata>
  <g
     inkscape:label="Layer 1"
     inkscape:groupmode="layer"
     id="layer1">
    <g
       id="g4048"
       transform="matrix(0.48380952,0,0,0.48380952,-16.252975,-13.455931)">
      <rect
         id="Rectangle-5"
         x="0"
         y="0"
         width="500"
         height="500"
         fill="none" />
      <g
         id="philadelphia-flyers"
         transform="matrix(0.6421034,0,0,0.6421034,-58.209653,44.526902)">
        <path
           fill="#ffffff"
           d="m 437.93,458.94 c -8.283,0 -15.006,6.713 -15.006,15 0,8.278 6.724,15.002 15.005,15.002 8.282,0 14.995,-6.724 14.995,-15.001 0,-8.288 -6.713,-15.001 -14.995,-15.001 z m 0,26.783 a 11.772,11.772 0 0 1 -11.783,-11.782 c 0,-6.51 5.265,-11.775 11.782,-11.775 6.51,0 11.78,5.265 11.78,11.775 0,6.512 -5.27,11.782 -11.78,11.782 z m 6.163,-15.26 a 5.085,5.085 0 0 0 -5.09,-5.082 h -7.228 v 17.123 h 3.213 v -6.954 h 2.306 l 3.246,6.954 h 3.553 l -3.389,-7.251 a 5.095,5.095 0 0 0 3.39,-4.79 z m -5.09,1.872 h -4.015 v -3.747 h 4.015 c 1.032,0 1.877,0.84 1.877,1.876 a 1.878,1.878 0 0 1 -1.877,1.871 z"
           id="path4025" />
        <path
           fill="#ffffff"
           d="M 604.22,87.506 H 145.163 v 14.517 c 0,40.326 19.31,75.9 48.561,96.815 h -48.561 v 14.526 c 0,40.313 19.31,75.881 48.561,96.802 h -48.561 v 14.527 c 0,40.312 19.31,75.88 48.561,96.8 h -48.561 v 14.534 c 0,64.217 48.967,116.467 109.156,116.467 h 103.92 l 76.665,-129.608 c 39.677,53.75 102.35,85.855 169.316,85.855 116.134,0 210.617,-94.482 210.617,-210.612 0,-116.138 -94.483,-210.623 -210.617,-210.623 z"
           id="path4027" />
        <path
           fill="#010101"
           d="M 604.22,102.023 H 163.88 c 0,56.313 42.369,101.958 94.635,101.958 H 424.39 c 2.583,0 4.683,2.1 4.683,4.689 0,2.589 -2.1,4.694 -4.683,4.694 H 163.88 c 0,56.304 42.369,101.949 94.635,101.949 h 100.021 c 2.584,0 4.69,2.1 4.69,4.698 0,2.576 -2.106,4.682 -4.69,4.682 H 163.881 c 0,56.302 42.368,101.948 94.634,101.948 h 34.168 a 4.69,4.69 0 0 1 4.688,4.69 4.696,4.696 0 0 1 -4.688,4.696 H 163.881 c 0,56.295 42.368,101.944 94.634,101.944 h 91.449 L 520.909,248.95 c 16.84,-28.466 47.84,-47.557 83.31,-47.557 53.425,0 96.734,43.309 96.734,96.737 0,53.413 -43.309,96.733 -96.733,96.733 -52.754,0 -95.64,-42.238 -96.71,-94.74 L 442.823,409.5 c 35.38,51.172 94.465,84.721 161.397,84.721 108.299,0 196.094,-87.8 196.094,-196.092 0,-108.308 -87.796,-196.106 -196.094,-196.106 z"
           id="path4029" />
        <path
           fill="#fa4616"
           d="m 604.22,242.475 c -30.737,0 -55.645,24.915 -55.645,55.654 0,30.725 24.908,55.643 55.645,55.643 30.74,0 55.652,-24.918 55.652,-55.643 0,-30.739 -24.912,-55.654 -55.652,-55.654 z"
           id="path4031" />
      </g>
    </g>
  </g>
</svg>
