<?xml version="1.0" encoding="UTF-8" standalone="no"?>
<svg
   xmlns:dc="http://purl.org/dc/elements/1.1/"
   xmlns:cc="http://creativecommons.org/ns#"
   xmlns:rdf="http://www.w3.org/1999/02/22-rdf-syntax-ns#"
   xmlns:svg="http://www.w3.org/2000/svg"
   xmlns="http://www.w3.org/2000/svg"
   xmlns:sodipodi="http://sodipodi.sourceforge.net/DTD/sodipodi-0.dtd"
   xmlns:inkscape="http://www.inkscape.org/namespaces/inkscape"
   width="181mm"
   height="220mm"
   viewBox="0 0 181 220"
   version="1.1"
   id="svg7825"
   inkscape:version="1.0.1 (3bc2e813f5, 2020-09-07)"
   sodipodi:docname="third-rank-cup-icon.svg">
  <defs
     id="defs7819" />
  <sodipodi:namedview
     id="base"
     pagecolor="#ffffff"
     bordercolor="#666666"
     borderopacity="1.0"
     inkscape:pageopacity="0.0"
     inkscape:pageshadow="2"
     inkscape:zoom="0.35"
     inkscape:cx="400"
     inkscape:cy="560"
     inkscape:document-units="mm"
     inkscape:current-layer="layer1"
     inkscape:document-rotation="0"
     showgrid="false"
     inkscape:window-width="1431"
     inkscape:window-height="1030"
     inkscape:window-x="96"
     inkscape:window-y="0"
     inkscape:window-maximized="0" />
  <metadata
     id="metadata7822">
    <rdf:RDF>
      <cc:Work
         rdf:about="">
        <dc:format>image/svg+xml</dc:format>
        <dc:type
           rdf:resource="http://purl.org/dc/dcmitype/StillImage" />
        <dc:title></dc:title>
      </cc:Work>
    </rdf:RDF>
  </metadata>
  <g
     inkscape:label="Layer 1"
     inkscape:groupmode="layer"
     id="layer1">
    <g
       id="g2737"
       transform="matrix(2.4896379,0,0,2.4896379,2271.938,-716.98784)">
      <path
         d="m -842.1817,302.64221 h -10.1693 v -3.68146 c 1.97268,-0.69965 3.38977,-2.58351 3.38977,-4.79313 0,-2.80368 -2.28098,-5.08465 -5.08465,-5.08465 h -44.06698 c -2.80367,0 -5.08466,2.28097 -5.08466,5.08465 0,2.20945 1.4171,4.09348 3.38978,4.79313 v 3.68146 h -10.16928 c -0.9361,0 -1.6949,0.75897 -1.6949,1.69488 v 11.86419 c 0,7.47647 6.0826,13.55907 13.55906,13.55907 h 1.43303 c 0.32575,0.56778 0.67388,1.12523 1.04845,1.66912 2.39911,3.48247 5.63702,6.23581 9.41847,8.03256 -0.0229,0.19525 -0.0359,0.39355 -0.0359,0.5949 0,2.37487 1.63675,4.37399 3.84128,4.93008 -2.03657,6.78547 -5.65565,13.92516 -9.94269,13.92516 h -4.06772 c -0.85473,0 -1.57574,0.63643 -1.68184,1.48472 l -1.69488,13.55907 c -0.0603,0.48237 0.0895,0.96744 0.41118,1.33184 0.32169,0.3644 0.78456,0.57321 1.27065,0.57321 h 44.06698 c 0.48609,0 0.94896,-0.20864 1.27065,-0.57321 0.32169,-0.3644 0.47152,-0.84964 0.41118,-1.33184 l -1.69488,-13.55907 c -0.10593,-0.84829 -0.82694,-1.48472 -1.68184,-1.48472 h -4.06772 c -2.59469,0 -4.78703,-2.72452 -6.1692,-5.01041 -1.77624,-2.9374 -3.01673,-6.39734 -3.77315,-8.91509 2.20419,-0.55626 3.84077,-2.55537 3.84077,-4.93008 0,-0.20135 -0.0131,-0.39948 -0.0359,-0.5949 3.78213,-1.79692 7.02038,-4.55093 9.41949,-8.03392 0.37423,-0.54338 0.72185,-1.10032 1.04743,-1.66742 h 1.4332 c 7.47647,0 13.55907,-6.0826 13.55907,-13.55907 v -11.86419 c 0,-0.93591 -0.7588,-1.69488 -1.69489,-1.69488 z m -66.10042,13.55907 v -10.1693 h 8.47438 v 11.99113 c 0,2.87791 0.52202,5.69396 1.52489,8.34323 -5.52887,-0.0915 -9.99927,-4.61466 -9.99927,-10.16506 z m 52.31627,56.26996 h -40.22721 l 1.27116,-10.1693 h 37.68489 z m -10.52421,-13.55907 h -19.17862 c 0.82354,-0.90269 1.61776,-1.98386 2.38046,-3.24349 2.1664,-3.5779 3.58875,-7.79342 4.36636,-10.52743 h 5.68464 c 0.77846,2.73689 2.19776,6.94139 4.35856,10.51471 0.76524,1.26507 1.56218,2.35047 2.3886,3.25621 z m -4.50466,-17.16069 h -10.1693 c -0.93456,0 -1.69488,-0.76033 -1.69488,-1.69489 0,-0.93455 0.76032,-1.69471 1.69488,-1.69471 h 10.1693 c 0.93456,0 1.69488,0.76032 1.69488,1.69488 0,0.93456 -0.76032,1.69472 -1.69488,1.69472 z m 3.55044,-5.3299 c -0.9171,-0.89592 -2.16996,-1.44947 -3.55044,-1.44947 h -10.1693 c -1.38031,0 -2.63317,0.55372 -3.55027,1.44964 -7.14563,-3.36469 -11.70368,-10.46472 -11.70368,-18.39864 v -18.77084 h 12.71112 c 0.93608,0 1.69488,-0.75897 1.69488,-1.69488 0,-0.93592 -0.7588,-1.69489 -1.69488,-1.69489 h -14.40601 c -0.93456,0 -1.69488,-0.76032 -1.69488,-1.69488 0,-0.93456 0.76032,-1.69488 1.69488,-1.69488 h 44.06698 c 0.93456,0 1.69488,0.76032 1.69488,1.69488 0,0.93456 -0.76032,1.69488 -1.69488,1.69488 h -14.40702 c -0.93609,0 -1.69489,0.75897 -1.69489,1.69489 0,0.93591 0.7588,1.69488 1.69489,1.69488 h 12.71213 v 18.77084 c 0,7.93341 -4.55805,15.03378 -11.70351,18.39847 z m 23.5677,-20.2203 c 0,5.5504 -4.47043,10.07354 -9.99931,10.16506 1.00287,-2.64927 1.52489,-5.46532 1.52489,-8.34323 v -11.99113 h 8.47442 z"
         id="path2270-9-9-8"
         style="stroke-width:0.169488" />
      <text
         xml:space="preserve"
         style="font-style:normal;font-weight:normal;font-size:26.7958px;line-height:1.25;font-family:sans-serif;fill:#000000;fill-opacity:1;stroke:none;stroke-width:0.669896"
         x="-884.20422"
         y="325.48569"
         id="text2454"><tspan
           sodipodi:role="line"
           id="tspan2452"
           x="-884.20422"
           y="325.48569"
           style="stroke-width:0.669896">3</tspan></text>
      <path
         d="m -872.84131,366.21463 h -7.05291 c -0.93609,0 -1.69489,0.75897 -1.69489,1.69488 0,0.93592 0.7588,1.69489 1.69489,1.69489 h 7.05291 c 0.93609,0 1.69489,-0.75897 1.69489,-1.69489 0,-0.93591 -0.7588,-1.69488 -1.69489,-1.69488 z"
         id="path2268-7-6-1"
         style="stroke-width:0.169488" />
      <path
         style="opacity:0.5;fill:#cd7f32;fill-opacity:1;stroke:#000000;stroke-width:1.16239;stroke-linejoin:round;stroke-miterlimit:4;stroke-dasharray:none;paint-order:fill markers stroke"
         d="m -3350.4421,1267.2291 c -16.4574,-9.7197 -29.3568,-27.1567 -34.8343,-47.0879 -1.8931,-6.8884 -2.0193,-9.4657 -2.3503,-47.9978 l -0.3497,-40.7185 h 25.3851 c 25.3583,0 25.3872,0 27.3636,-2.106 2.628,-2.7974 2.5716,-7.0285 -0.1275,-9.5642 -2.0723,-1.9469 -2.5746,-1.9785 -31.4333,-1.9785 h -29.3274 l -2.2334,-2.2334 c -2.7249,-2.7249 -2.7909,-4.0917 -0.3475,-7.1979 l 1.8858,-2.3975 h 85.4656 c 84.2524,0 85.4914,0.026 87.2854,1.8198 1.0009,1.0009 1.8198,2.8435 1.8198,4.0946 0,1.2511 -0.8189,3.0937 -1.8198,4.0946 -1.7449,1.7449 -3.033,1.8198 -31.2911,1.8198 -27.4391,0 -29.6163,0.1174 -31.5739,1.7026 -2.9217,2.3658 -2.9217,7.8777 0,10.2435 1.9399,1.5709 4.0303,1.7026 27.0243,1.7026 h 24.9218 v 39.1645 c 0,42.2806 -0.3561,46.3887 -5.1172,59.038 -5.3271,14.1526 -17.3179,28.5576 -30.6994,36.8804 -5.9206,3.6823 -7.4113,4.2624 -8.6442,3.3634 -5.5706,-4.0621 -6.8719,-4.2344 -31.9717,-4.2344 h -24.1127 l -4.4367,2.5022 c -2.4401,1.3762 -4.4967,2.5023 -4.5702,2.5023 -0.073,0 -2.7335,-1.5355 -5.9111,-3.4122 z m 51.682,-37.5998 c 9.2116,-4.0685 13.693,-11.0409 13.7011,-21.3169 0.01,-8.8068 -2.2478,-12.7431 -9.3262,-16.2813 l -5.2666,-2.6326 3.4844,-1.56 c 12.4037,-5.5533 13.3576,-22.7227 1.6437,-29.5875 -7.2202,-4.2313 -22.4291,-4.5561 -32.8342,-0.7012 l -4.5265,1.677 -0.2709,5.6621 c -0.149,3.1142 -0.093,5.6622 0.1253,5.6622 0.2179,0 3.1604,-1.2936 6.5388,-2.8745 12.3014,-5.7565 25.2394,-4.2125 27.7215,3.3084 1.4018,4.2476 -0.111,8.8873 -3.7407,11.4718 -1.5546,1.107 -5.3996,2.3442 -9.0336,2.9066 l -6.3269,0.9794 v 4.3879 4.388 h 5.4887 c 10.5555,0 15.4393,4.0015 15.4393,12.6502 0,3.9529 -0.5148,5.8831 -2.2501,8.4367 -4.8181,7.0905 -17.2998,8.2459 -29.1539,2.6987 -3.3587,-1.5717 -6.2655,-2.8577 -6.4595,-2.8577 -0.194,0 -0.3528,2.6054 -0.3528,5.7899 v 5.7898 l 4.9505,1.5572 c 11.5224,3.6242 22.8758,3.7904 30.4486,0.4458 z"
         id="path2544"
         transform="scale(0.26458333)" />
      <path
         style="opacity:0.5;fill:#cd7f32;fill-opacity:1;stroke:#000000;stroke-width:1.16239;stroke-linejoin:round;stroke-miterlimit:4;stroke-dasharray:none;paint-order:fill markers stroke"
         d="m -3224.1924,1225.775 c 2.22,-7.2149 2.305,-8.4373 2.6515,-38.1631 l 0.3579,-30.7095 h 15.9516 15.9515 l -0.426,22.5203 c -0.3775,19.952 -0.6443,23.121 -2.3397,27.7875 -5.079,13.9803 -16.2087,22.9689 -31.635,25.5492 l -2.8053,0.4692 z"
         id="path2546"
         transform="scale(0.26458333)" />
      <path
         style="opacity:0.5;fill:#cd7f32;fill-opacity:1;stroke:#000000;stroke-width:1.16239;stroke-linejoin:round;stroke-miterlimit:4;stroke-dasharray:none;paint-order:fill markers stroke"
         d="m -3401.4926,1232.3359 c -11.3784,-2.2221 -21.776,-10.5398 -27.1874,-21.7488 l -3.2946,-6.8243 -0.2955,-23.4302 -0.2954,-23.4302 h 15.4433 15.4432 l 0.4115,29.3446 c 0.421,30.0273 0.6392,32.0714 4.8567,45.4956 0.2752,0.8758 0.1656,1.5475 -0.2435,1.4926 -0.409,-0.055 -2.5863,-0.4595 -4.8383,-0.8993 z"
         id="path2548"
         transform="scale(0.26458333)" />
      <path
         style="opacity:0.5;fill:#cd7f32;fill-opacity:1;stroke:#000000;stroke-width:1.16239;stroke-linejoin:round;stroke-miterlimit:4;stroke-dasharray:none;paint-order:fill markers stroke"
         d="m -3340.1777,1347.6499 c 6.0831,-9.0982 10.8903,-19.3745 15.5933,-33.3329 l 2.9124,-8.6442 10.4017,-0.2547 10.4017,-0.2547 3.4595,10.2637 c 4.4414,13.1767 11.4837,27.6297 17.0388,34.969 l 4.3724,5.7768 h -34.939 -34.9391 z"
         id="path2550"
         transform="scale(0.26458333)" />
      <path
         style="opacity:0.5;fill:#cd7f32;fill-opacity:1;stroke:#000000;stroke-width:1.16239;stroke-linejoin:round;stroke-miterlimit:4;stroke-dasharray:none;paint-order:fill markers stroke"
         d="m -3384.2791,1388.4747 2.2779,-18.6531 h 70.7402 70.7402 l 0.4982,2.9572 c 0.6719,3.9884 4.1298,31.7817 4.132,33.2117 0,0.9008 -15.6707,1.1374 -75.3323,1.1374 h -75.3341 z m 90.156,6.8244 c 2.7094,-2.7094 2.4264,-7.58 -0.5777,-9.943 -2.2108,-1.739 -3.5956,-1.8859 -17.7846,-1.8859 -15.1238,0 -15.4254,0.038 -17.6206,2.2334 -2.7572,2.7573 -2.943,7.0661 -0.4136,9.5955 1.6851,1.685 3.0331,1.8198 18.1983,1.8198 15.1651,0 16.5132,-0.1348 18.1982,-1.8198 z"
         id="path2552"
         transform="scale(0.26458333)" />
      <path
         style="opacity:0.5;fill:#cd7f32;fill-opacity:1;stroke:#000000;stroke-width:1.16239;stroke-linejoin:round;stroke-miterlimit:4;stroke-dasharray:none;paint-order:fill markers stroke"
         d="m -3333.5227,1289.7296 c -3.02,-2.3755 -3.2603,-6.2502 -0.5401,-8.7108 1.7698,-1.601 3.5486,-1.7334 23.2836,-1.7334 21.3582,0 21.3681,9e-4 23.1063,2.1481 2.2004,2.7181 2.2007,4.8139 0,7.5327 -1.7221,2.1285 -1.9274,2.1506 -22.5662,2.4218 -20.0687,0.2637 -20.9179,0.2033 -23.2846,-1.6584 z"
         id="path2554"
         transform="scale(0.26458333)" />
    </g>
  </g>
</svg>
