<?xml version="1.0" encoding="UTF-8" standalone="no"?>
<svg
   xmlns:dc="http://purl.org/dc/elements/1.1/"
   xmlns:cc="http://creativecommons.org/ns#"
   xmlns:rdf="http://www.w3.org/1999/02/22-rdf-syntax-ns#"
   xmlns:svg="http://www.w3.org/2000/svg"
   xmlns="http://www.w3.org/2000/svg"
   xmlns:sodipodi="http://sodipodi.sourceforge.net/DTD/sodipodi-0.dtd"
   xmlns:inkscape="http://www.inkscape.org/namespaces/inkscape"
   width="210mm"
   height="297mm"
   viewBox="0 0 210 297"
   version="1.1"
   id="svg8440"
   inkscape:version="1.0.1 (3bc2e813f5, 2020-09-07)"
   sodipodi:docname="boston-bruins-emblem.svg">
  <defs
     id="defs8434" />
  <sodipodi:namedview
     id="base"
     pagecolor="#ffffff"
     bordercolor="#666666"
     borderopacity="1.0"
     inkscape:pageopacity="0.0"
     inkscape:pageshadow="2"
     inkscape:zoom="0.35"
     inkscape:cx="400"
     inkscape:cy="560"
     inkscape:document-units="mm"
     inkscape:current-layer="layer1"
     inkscape:document-rotation="0"
     showgrid="false"
     inkscape:window-width="1431"
     inkscape:window-height="1030"
     inkscape:window-x="32"
     inkscape:window-y="0"
     inkscape:window-maximized="0" />
  <metadata
     id="metadata8437">
    <rdf:RDF>
      <cc:Work
         rdf:about="">
        <dc:format>image/svg+xml</dc:format>
        <dc:type
           rdf:resource="http://purl.org/dc/dcmitype/StillImage" />
        <dc:title></dc:title>
      </cc:Work>
    </rdf:RDF>
  </metadata>
  <g
     inkscape:label="Layer 1"
     inkscape:groupmode="layer"
     id="layer1">
    <g
       id="g1663"
       transform="matrix(0.90256807,0,0,0.90256807,3.023809,2.7214286)">
      <g
         id="Layer_7">
        <g
           id="g1586">
          <path
             fill="#ffffff"
             d="m 113.49,216.642 c -27.553,0 -53.457,-10.73 -72.94,-30.213 C 21.068,166.945 10.338,141.04 10.338,113.49 10.338,85.937 21.067,60.033 40.55,40.551 60.033,21.069 85.937,10.339 113.49,10.339 c 27.552,0 53.455,10.73 72.938,30.212 19.482,19.482 30.214,45.387 30.214,72.939 0,27.551 -10.731,53.455 -30.214,72.939 -19.483,19.482 -45.387,30.213 -72.938,30.213 z"
             id="path1582" />
          <path
             fill="#ffc422"
             d="m 113.489,20.675 c 51.258,0 92.815,41.554 92.815,92.814 0,51.257 -41.557,92.814 -92.815,92.814 -51.26,0 -92.814,-41.558 -92.814,-92.814 0,-51.26 41.554,-92.814 92.814,-92.814 M 113.489,0 C 98.178,0 83.313,3.003 69.308,8.927 55.791,14.644 43.656,22.824 33.24,33.24 22.824,43.656 14.644,55.791 8.927,69.308 3.003,83.313 0,98.177 0,113.489 c 0,15.311 3.003,30.177 8.927,44.18 5.717,13.518 13.897,25.652 24.313,36.067 10.416,10.417 22.551,18.598 36.067,24.314 14.005,5.924 28.87,8.928 44.182,8.928 15.311,0 30.177,-3.004 44.181,-8.928 13.517,-5.717 25.651,-13.897 36.067,-24.313 10.417,-10.416 18.597,-22.551 24.313,-36.067 5.924,-14.004 8.928,-28.87 8.928,-44.181 0,-15.312 -3.004,-30.177 -8.928,-44.182 C 212.333,55.79 204.154,43.656 193.737,33.24 183.321,22.824 171.186,14.644 157.67,8.927 143.667,3.003 128.8,0 113.489,0 Z"
             id="path1584" />
        </g>
      </g>
      <g
         id="Layer_2">
        <g
           id="g1607">
          <g
             id="g1593">
            <polygon
               fill="#ffc422"
               points="104.797,73.215 104.797,11.487 122.143,11.487 122.143,73.221 "
               id="polygon1589" />
            <path
               fill="#231f20"
               d="M 124.727,8.903 V 75.806 L 102.212,75.799 V 8.903 h 22.515 m -5.168,5.169 h -12.178 v 56.56 l 12.178,0.004 z"
               id="path1591" />
          </g>
          <g
             id="g1599">
            <polygon
               fill="#ffc422"
               points="104.796,215.653 104.796,154.066 122.143,154.066 122.143,215.653 "
               id="polygon1595" />
            <path
               fill="#231f20"
               d="m 124.727,151.481 v 66.756 h -22.515 v -66.756 h 22.515 m -5.168,5.169 h -12.178 v 56.418 h 12.178 z"
               id="path1597" />
          </g>
          <g
             id="g1605">
            <path
               fill="#ffc422"
               d="m 179.52,191.887 -42.468,-42.468 3.499,-3.498 0.759,-0.758 -0.002,-1.072 -0.015,-14.963 50.493,50.492 z m -132.101,0 -12.266,-12.267 52.966,-52.965 3.697,-3.696 v 24.529 z m 168.132,-69.643 h -74.903 -4.998 l -2.486,-2.486 -0.757,-0.757 h -1.069 l -36.936,-0.011 -2.585,-10e-4 v 2.585 0.67 H 86.293 11.387 v -17.348 h 74.904 5.574 v 0.808 2.584 h 2.584 36.935 1.071 l 0.757,-0.757 2.635,-2.635 h 4.801 74.903 z M 91.865,104.231 88.118,100.485 35.153,47.52 47.419,35.254 91.865,79.7 Z m 49.492,-6.282 -0.016,-14.771 -0.001,-1.069 -0.757,-0.756 -3.582,-3.582 42.519,-42.517 12.267,12.266 z"
               id="path1601" />
            <path
               fill="#231f20"
               d="m 179.52,31.599 15.921,15.921 -54.793,54.792 h 77.489 v 22.515 h -77.489 l 54.793,54.793 -15.921,15.921 -46.122,-46.122 5.327,-5.326 -0.017,-15.135 -7.372,-7.373 -36.935,-0.011 v 26.984 L 47.419,195.54 31.498,179.62 86.291,124.827 H 8.803 V 102.312 H 86.292 L 31.498,47.52 47.419,31.599 l 47.03,47.03 v 27.076 h 36.935 l 7.389,-7.389 -0.016,-15.135 -5.41,-5.409 46.173,-46.173 m 0,7.309 -38.862,38.863 1.754,1.754 1.512,1.512 0.002,2.138 0.009,8.542 L 188.13,47.52 Z M 47.419,38.909 38.808,47.52 89.28,97.992 V 80.77 Z m 165.548,68.572 h -72.319 -3.731 l -1.878,1.878 -1.513,1.514 H 131.384 94.449 89.28 v -3.392 h -2.989 -72.32 v 12.178 h 72.321 2.941 v -3.256 l 5.171,0.002 36.934,0.012 2.14,0.001 1.514,1.513 1.729,1.729 h 3.929 72.319 v -12.179 z m -123.735,21.715 -50.424,50.424 8.611,8.611 41.813,-41.813 z m 54.652,6.177 0.009,8.715 0.003,2.145 -1.516,1.517 -1.673,1.67 38.813,38.813 8.61,-8.611 z"
               id="path1603" />
          </g>
        </g>
      </g>
      <g
         id="Layer_3_copy">
        <g
           id="g1622">
          <g
             id="g1614">
            <path
               fill="#231f20"
               d="m 142.025,172.151 h -1.803 -70.124 -4.431 v -4.43 -11.446 -1.897 l 1.374,-1.31 6.749,-6.433 V 80.646 l -6.75,-6.442 -1.372,-1.309 v -1.896 -11.453 -4.43 h 4.431 70.125 1.805 l 1.291,1.262 16.631,16.25 1.334,1.304 v 1.865 28.059 1.887 l -1.358,1.307 -6.846,6.578 6.849,6.6 1.355,1.307 v 1.884 28.063 1.866 l -1.335,1.304 -16.631,16.239 z m -43.194,-25.1 h 30.671 l 4.79,-4.79 -0.012,-11.466 -4.779,-4.78 -30.67,-0.009 z m 0.048,-45.776 h 30.67 l 4.791,-4.793 -0.012,-11.463 -4.781,-4.781 -30.668,-0.009 z"
               id="path1610" />
            <path
               fill="#231f20"
               d="m 140.222,59.546 16.631,16.25 v 28.059 l -10.164,9.768 10.164,9.795 v 28.063 L 140.222,167.72 H 70.098 v -11.445 l 8.123,-7.741 V 78.75 L 70.098,70.999 V 59.546 h 70.124 m -45.773,46.159 h 36.935 l 7.389,-7.389 -0.016,-15.135 -7.373,-7.372 -36.935,-0.012 v 29.908 m -0.048,45.776 h 36.935 l 7.389,-7.389 -0.017,-15.135 -7.372,-7.373 -36.935,-0.011 v 29.908 M 143.833,50.686 h -3.61 -70.125 -8.86 v 8.86 11.453 3.792 l 2.743,2.618 5.379,5.133 v 62.197 l -5.375,5.123 -2.747,2.618 v 3.795 11.445 8.861 h 8.86 70.125 3.608 l 2.581,-2.521 16.632,-16.239 2.67,-2.607 v -3.732 -28.063 -3.768 l -2.712,-2.613 -3.533,-3.405 3.525,-3.388 2.72,-2.615 v -3.774 -28.06 -3.73 l -2.668,-2.607 -16.632,-16.25 z M 103.31,96.844 V 84.66 l 24.403,0.007 2.186,2.187 0.009,7.795 -2.193,2.194 H 103.31 Z m -0.048,45.776 v -12.183 l 24.402,0.007 2.187,2.188 0.009,7.794 -2.193,2.193 h -24.405 z"
               id="path1612" />
          </g>
          <g
             id="g1620">
            <path
               fill="#231f20"
               d="m 141.048,169.751 h -0.826 -70.124 -2.031 v -2.03 -11.444 -0.87 l 0.629,-0.6 7.493,-7.143 V 79.619 l -7.494,-7.151 -0.628,-0.6 V 70.999 59.546 57.515 h 2.031 70.125 0.826 l 0.593,0.578 16.631,16.251 0.612,0.597 v 0.855 28.059 0.865 l -0.625,0.599 -8.641,8.306 8.644,8.329 0.622,0.599 v 0.864 28.063 0.857 l -0.613,0.597 -16.631,16.239 z M 96.432,149.452 h 34.065 l 6.197,-6.197 -0.016,-13.456 -6.182,-6.183 -34.065,-0.011 v 25.847 z m 0.048,-45.779 h 34.063 l 6.198,-6.197 -0.015,-13.454 -6.184,-6.184 -34.062,-0.01 z"
               id="path1616" />
            <path
               fill="#ffc422"
               d="m 140.222,59.546 16.631,16.25 v 28.059 l -10.164,9.768 10.164,9.795 v 28.063 L 140.222,167.72 H 70.098 v -11.445 l 8.123,-7.741 V 78.75 L 70.098,70.999 V 59.546 h 70.124 m -45.773,46.159 h 36.935 l 7.389,-7.389 -0.016,-15.135 -7.373,-7.372 -36.935,-0.012 v 29.908 m -0.048,45.776 h 36.935 l 7.389,-7.389 -0.017,-15.135 -7.372,-7.373 -36.935,-0.011 v 29.908 m 47.476,-95.996 h -1.655 -70.124 -4.061 v 4.061 11.453 1.738 l 1.257,1.2 6.865,6.551 v 66.307 l -6.863,6.541 -1.259,1.2 v 1.739 11.445 4.062 h 4.061 70.125 1.653 l 1.184,-1.155 16.631,-16.239 1.225,-1.195 v -1.711 -28.063 -1.728 l -1.244,-1.197 -7.123,-6.865 7.119,-6.845 1.248,-1.198 v -1.729 -28.061 -1.709 l -1.224,-1.195 -16.631,-16.25 z M 98.511,101.643 V 79.859 l 31.191,0.01 4.995,4.996 0.013,11.771 -5.008,5.008 H 98.511 Z m -0.049,45.778 v -21.784 l 31.191,0.01 4.996,4.996 0.013,11.771 -5.009,5.008 H 98.462 Z"
               id="path1618" />
          </g>
        </g>
      </g>
      <g
         id="Layer_6">
        <g
           id="g1627">
          <path
             fill="#231f20"
             d="m 113.489,20.675 c 51.258,0 92.815,41.554 92.815,92.814 0,51.257 -41.557,92.814 -92.815,92.814 -51.26,0 -92.814,-41.558 -92.814,-92.814 0,-51.26 41.554,-92.814 92.814,-92.814 m 0,-16.244 c -14.715,0 -29,2.885 -42.456,8.577 C 58.044,18.502 46.383,26.363 36.372,36.374 26.361,46.384 18.5,58.046 13.006,71.034 7.316,84.489 4.43,98.773 4.43,113.489 c 0,14.715 2.886,28.999 8.577,42.455 5.494,12.987 13.355,24.649 23.366,34.659 10.01,10.012 21.672,17.873 34.66,23.367 13.457,5.692 27.741,8.577 42.456,8.577 14.716,0 29,-2.885 42.456,-8.577 12.987,-5.494 24.649,-13.355 34.66,-23.366 10.011,-10.011 17.873,-21.673 23.366,-34.66 5.692,-13.456 8.577,-27.74 8.577,-42.455 0,-14.716 -2.885,-29 -8.577,-42.456 C 208.478,58.045 200.616,46.383 190.605,36.373 180.594,26.362 168.932,18.501 155.944,13.007 142.489,7.316 128.206,4.431 113.489,4.431 Z"
             id="path1625" />
        </g>
      </g>
    </g>
  </g>
</svg>
