<?xml version="1.0" encoding="UTF-8" standalone="no"?>
<svg
   xmlns:dc="http://purl.org/dc/elements/1.1/"
   xmlns:cc="http://creativecommons.org/ns#"
   xmlns:rdf="http://www.w3.org/1999/02/22-rdf-syntax-ns#"
   xmlns:svg="http://www.w3.org/2000/svg"
   xmlns="http://www.w3.org/2000/svg"
   xmlns:sodipodi="http://sodipodi.sourceforge.net/DTD/sodipodi-0.dtd"
   xmlns:inkscape="http://www.inkscape.org/namespaces/inkscape"
   width="181mm"
   height="220mm"
   viewBox="0 0 181 220"
   version="1.1"
   id="svg7825"
   inkscape:version="1.0.1 (3bc2e813f5, 2020-09-07)"
   sodipodi:docname="second-rank-cup-icon.svg">
  <defs
     id="defs7819" />
  <sodipodi:namedview
     id="base"
     pagecolor="#ffffff"
     bordercolor="#666666"
     borderopacity="1.0"
     inkscape:pageopacity="0.0"
     inkscape:pageshadow="2"
     inkscape:zoom="0.35"
     inkscape:cx="400"
     inkscape:cy="560"
     inkscape:document-units="mm"
     inkscape:current-layer="layer1"
     inkscape:document-rotation="0"
     showgrid="false"
     inkscape:window-width="1431"
     inkscape:window-height="1030"
     inkscape:window-x="96"
     inkscape:window-y="0"
     inkscape:window-maximized="0" />
  <metadata
     id="metadata7822">
    <rdf:RDF>
      <cc:Work
         rdf:about="">
        <dc:format>image/svg+xml</dc:format>
        <dc:type
           rdf:resource="http://purl.org/dc/dcmitype/StillImage" />
        <dc:title></dc:title>
      </cc:Work>
    </rdf:RDF>
  </metadata>
  <g
     inkscape:label="Layer 1"
     inkscape:groupmode="layer"
     id="layer1">
    <g
       id="g2671"
       transform="matrix(2.4983492,0,0,2.4983492,2495.1046,-720.11929)">
      <path
         d="m -962.52868,299.19511 c 0.93608,0 1.69488,-0.75897 1.69488,-1.69488 0,-0.93592 -0.7588,-1.69489 -1.69488,-1.69489 h -10e-4 c -0.93608,0 -1.6942,0.75897 -1.6942,1.69489 0,0.93591 0.75948,1.69488 1.69556,1.69488 z"
         id="path2272-3-0"
         style="stroke-width:0.169488" />
      <g
         id="g2656">
        <path
           d="m -959.00231,366.16372 h -7.05291 c -0.93609,0 -1.69489,0.75897 -1.69489,1.69488 0,0.93592 0.7588,1.69489 1.69489,1.69489 h 7.05291 c 0.93609,0 1.69489,-0.75897 1.69489,-1.69489 0,-0.93591 -0.7588,-1.69488 -1.69489,-1.69488 z"
           id="path2268-7-6"
           style="stroke-width:0.169488" />
        <text
           xml:space="preserve"
           style="font-style:normal;font-weight:normal;font-size:25.5046px;line-height:1.25;font-family:sans-serif;fill:#000000;fill-opacity:1;stroke:none;stroke-width:0.637615"
           x="-970.66229"
           y="325.73105"
           id="text2450"><tspan
             sodipodi:role="line"
             id="tspan2448"
             x="-970.66229"
             y="325.73105"
             style="stroke-width:0.637615">2</tspan></text>
        <g
           id="g2643">
          <path
             d="m -928.63101,302.58505 h -10.1693 v -3.68146 c 1.97268,-0.69965 3.38977,-2.58351 3.38977,-4.79313 0,-2.80368 -2.28098,-5.08465 -5.08465,-5.08465 h -44.06698 c -2.80367,0 -5.08465,2.28097 -5.08465,5.08465 0,2.20945 1.41709,4.09348 3.38977,4.79313 v 3.68146 h -10.1693 c -0.93609,0 -1.69489,0.75897 -1.69489,1.69488 v 11.86419 c 0,7.47647 6.0826,13.55907 13.55907,13.55907 h 1.43303 c 0.32575,0.56778 0.67388,1.12523 1.04845,1.66912 2.39911,3.48247 5.63702,6.23581 9.41847,8.03256 -0.0229,0.19525 -0.0359,0.39355 -0.0359,0.5949 0,2.37487 1.63675,4.37399 3.84128,4.93008 -2.03657,6.78547 -5.65565,13.92516 -9.94269,13.92516 h -4.06772 c -0.85473,0 -1.57574,0.63643 -1.68184,1.48472 l -1.69488,13.55907 c -0.0603,0.48237 0.0895,0.96744 0.41118,1.33184 0.32169,0.3644 0.78456,0.57321 1.27065,0.57321 h 44.06698 c 0.48609,0 0.94896,-0.20864 1.27065,-0.57321 0.32169,-0.3644 0.47152,-0.84964 0.41118,-1.33184 l -1.69488,-13.55907 c -0.10593,-0.84829 -0.82694,-1.48472 -1.68184,-1.48472 h -4.06772 c -2.59469,0 -4.78703,-2.72452 -6.1692,-5.01041 -1.77624,-2.9374 -3.01673,-6.39734 -3.77315,-8.91509 2.20419,-0.55626 3.84077,-2.55537 3.84077,-4.93008 0,-0.20135 -0.0131,-0.39948 -0.0359,-0.5949 3.78213,-1.79692 7.02038,-4.55093 9.41949,-8.03392 0.37423,-0.54338 0.72185,-1.10032 1.04743,-1.66742 h 1.4332 c 7.47647,0 13.55907,-6.0826 13.55907,-13.55907 v -11.86419 c 0,-0.93591 -0.7588,-1.69488 -1.69489,-1.69488 z m -66.10046,13.55907 v -10.1693 h 8.47442 v 11.99113 c 0,2.87791 0.52202,5.69396 1.52489,8.34323 -5.52888,-0.0915 -9.99931,-4.61466 -9.99931,-10.16506 z m 52.31631,56.26996 h -40.22721 l 1.27116,-10.1693 h 37.68489 z m -10.52421,-13.55907 h -19.17862 c 0.82354,-0.90269 1.61776,-1.98386 2.38046,-3.24349 2.1664,-3.5779 3.58875,-7.79342 4.36636,-10.52743 h 5.68464 c 0.77846,2.73689 2.19776,6.94139 4.35856,10.51471 0.76524,1.26507 1.56218,2.35047 2.3886,3.25621 z m -4.50466,-17.16069 h -10.1693 c -0.93456,0 -1.69488,-0.76033 -1.69488,-1.69489 0,-0.93455 0.76032,-1.69471 1.69488,-1.69471 h 10.1693 c 0.93456,0 1.69488,0.76032 1.69488,1.69488 0,0.93456 -0.76032,1.69472 -1.69488,1.69472 z m 3.55044,-5.3299 c -0.9171,-0.89592 -2.16996,-1.44947 -3.55044,-1.44947 h -10.1693 c -1.38031,0 -2.63317,0.55372 -3.55027,1.44964 -7.14563,-3.36469 -11.70368,-10.46472 -11.70368,-18.39864 v -18.77084 h 12.71112 c 0.93608,0 1.69488,-0.75897 1.69488,-1.69488 0,-0.93592 -0.7588,-1.69489 -1.69488,-1.69489 h -14.40601 c -0.93456,0 -1.69488,-0.76032 -1.69488,-1.69488 0,-0.93456 0.76032,-1.69488 1.69488,-1.69488 h 44.06698 c 0.93456,0 1.69488,0.76032 1.69488,1.69488 0,0.93456 -0.76032,1.69488 -1.69488,1.69488 h -14.40702 c -0.93609,0 -1.69489,0.75897 -1.69489,1.69489 0,0.93591 0.7588,1.69488 1.69489,1.69488 h 12.71213 v 18.77084 c 0,7.93341 -4.55805,15.03378 -11.70351,18.39847 z m 23.5677,-20.2203 c 0,5.5504 -4.47043,10.07354 -9.99931,10.16506 1.00287,-2.64927 1.52489,-5.46532 1.52489,-8.34323 v -11.99113 h 8.47442 z"
             id="path2270-9-9"
             style="fill:#000000;fill-opacity:1;stroke-width:0.169488" />
          <path
             style="opacity:0.5;fill:#c0c0c0;fill-opacity:1;stroke:#000000;stroke-width:1.16239;stroke-linejoin:round;stroke-miterlimit:4;stroke-dasharray:none;paint-order:fill markers stroke"
             d="m -3675.3758,1268.2007 c -18.0279,-10.6695 -30.8543,-27.271 -36.5273,-47.2779 -1.9334,-6.8185 -2.044,-9.0655 -2.3789,-48.3244 l -0.3512,-41.1735 h 25.1295 25.1295 l 2.2334,-2.2334 c 2.8659,-2.8659 2.9193,-6.8141 0.1275,-9.4368 -2.0723,-1.9469 -2.5745,-1.9785 -31.4333,-1.9785 h -29.3273 l -2.2334,-2.2334 c -2.7078,-2.7078 -2.8479,-5.3413 -0.4136,-7.7756 1.7941,-1.7941 3.033,-1.8198 87.6654,-1.8198 82.0102,0 85.9128,0.074 87.3514,1.664 2.2698,2.5081 1.8834,6.0961 -0.8916,8.279 -2.313,1.8194 -3.4323,1.8858 -31.7808,1.8858 h -29.3834 l -1.957,2.4879 c -1.4355,1.825 -1.8113,3.2159 -1.4106,5.2198 1.1,5.4998 0.905,5.4609 28.8013,5.7543 l 25.5036,0.2683 -0.3531,42.0426 c -0.3094,36.8361 -0.5521,42.7186 -1.96,47.502 -2.2038,7.4874 -6.8653,17.3625 -11.2199,23.7686 -4.8241,7.0968 -16.6307,18.18 -23.8276,22.3678 l -5.7925,3.3706 -4.1856,-2.4607 -4.1856,-2.4606 -23.0234,-0.2847 c -19.3171,-0.2388 -23.7367,-0.048 -27.4547,1.1873 -2.4373,0.8095 -4.9226,2.0636 -5.5228,2.7869 -1.4309,1.7241 -1.5484,1.7032 -6.328,-1.1256 z m 61.8739,-41.2352 v -4.5495 l -17.9707,-0.013 -17.9708,-0.013 5.4595,-4.6818 c 10.3192,-8.8493 22.7154,-22.0725 25.0167,-26.6857 1.853,-3.7145 2.27,-5.8941 2.2748,-11.8902 0.01,-6.4572 -0.2901,-7.7897 -2.45,-11.0568 -1.6654,-2.5192 -4.0768,-4.5078 -7.4921,-6.1788 -4.3408,-2.1237 -6.1376,-2.4583 -13.0126,-2.4226 -5.4565,0.028 -9.9168,0.6462 -14.1183,1.9559 l -6.1419,1.9147 v 5.4229 c 0,2.9826 0.1552,5.4229 0.345,5.4229 0.1897,0 2.5741,-1.0205 5.2985,-2.2678 16.8481,-7.7133 29.5022,-2.4716 26.97,11.1718 -0.3981,2.1447 -2.03,5.7981 -3.6266,8.1186 -3.466,5.0377 -14.249,15.857 -23.8579,23.9384 l -6.9489,5.8441 v 5.2596 5.2597 h 24.1127 24.1126 z m -19.3681,-97.6204 c 4.0598,-4.0598 0.9374,-11.5689 -4.8106,-11.5689 -4.0858,0 -6.7582,2.6725 -6.7582,6.7583 0,5.748 7.509,8.8704 11.5688,4.8106 z"
             id="path2532"
             transform="scale(0.26458333)" />
          <path
             style="opacity:0.5;fill:#c0c0c0;fill-opacity:1;stroke:#000000;stroke-width:1.16239;stroke-linejoin:round;stroke-miterlimit:4;stroke-dasharray:none;paint-order:fill markers stroke"
             d="m -3552.5164,1231.8662 c 0.012,-0.4433 0.9023,-3.877 1.9789,-7.6304 1.7846,-6.2218 1.9902,-9.4957 2.3278,-37.0789 l 0.3704,-30.2545 h 15.4491 15.4491 l -0.2826,23.8852 -0.2826,23.8851 -2.8105,5.9307 c -3.6332,7.6664 -10.1896,14.3509 -17.6697,18.0148 -5.8357,2.8584 -14.5715,4.8112 -14.5299,3.248 z"
             id="path2534"
             transform="scale(0.26458333)" />
          <path
             style="opacity:0.5;fill:#c0c0c0;fill-opacity:1;stroke:#000000;stroke-width:1.16239;stroke-linejoin:round;stroke-miterlimit:4;stroke-dasharray:none;paint-order:fill markers stroke"
             d="m -3672.6461,1355.8823 c 0,-0.1599 1.6726,-2.5143 3.7168,-5.232 5.0081,-6.6583 13.7149,-24.6262 17.606,-36.3333 l 3.1756,-9.5541 10.3195,-0.2548 10.3196,-0.2548 1.1424,4.4572 c 1.8048,7.042 10.3515,27.4211 14.2013,33.8622 1.9284,3.2263 4.9006,7.6062 6.6049,9.7331 l 3.0989,3.8671 h -35.0925 c -19.3009,0 -35.0925,-0.1308 -35.0925,-0.2906 z"
             id="path2536"
             transform="scale(0.26458333)" />
          <path
             style="opacity:0.5;fill:#c0c0c0;fill-opacity:1;stroke:#000000;stroke-width:1.16239;stroke-linejoin:round;stroke-miterlimit:4;stroke-dasharray:none;paint-order:fill markers stroke"
             d="m -3713.2708,1405.5356 c 0.2441,-0.8758 1.3628,-9.2698 2.4858,-18.6532 l 2.042,-17.0608 h 70.8233 c 38.9528,0 70.825,0.1023 70.8271,0.2274 0,0.1251 1.024,8.212 2.271,17.9708 1.2469,9.7588 2.2689,18.0503 2.271,18.4257 0,0.3753 -34.009,0.6824 -75.5802,0.6824 -71.5472,0 -75.5602,-0.085 -75.14,-1.5923 z m 93.3995,-10.2365 c 1.1266,-1.1266 1.8199,-3.0331 1.8199,-5.0045 0,-1.9715 -0.6933,-3.878 -1.8199,-5.0046 -1.6815,-1.6815 -3.033,-1.8198 -17.7846,-1.8198 -15.737,0 -15.9966,0.032 -18.1982,2.2334 -2.7294,2.7295 -2.8492,5.8374 -0.3475,9.0178 l 1.8858,2.3975 h 16.3124 c 15.0991,0 16.4477,-0.1354 18.1321,-1.8198 z"
             id="path2538"
             transform="scale(0.26458333)" />
          <path
             style="opacity:0.5;fill:#c0c0c0;fill-opacity:1;stroke:#000000;stroke-width:1.16239;stroke-linejoin:round;stroke-miterlimit:4;stroke-dasharray:none;paint-order:fill markers stroke"
             d="m -3661.1312,1288.9953 c -1.8467,-2.0406 -1.9428,-5.5792 -0.2157,-7.9436 1.2035,-1.6476 2.7312,-1.7847 22.7424,-2.0405 l 21.4523,-0.2742 2.2801,2.2802 c 2.752,2.752 2.9065,5.3761 0.4603,7.8223 -1.718,1.718 -3.033,1.8198 -23.5166,1.8198 -19.864,0 -21.8241,-0.1406 -23.2028,-1.664 z"
             id="path2540"
             transform="scale(0.26458333)" />
          <path
             style="opacity:0.5;fill:#c0c0c0;fill-opacity:1;stroke:#000000;stroke-width:1.16239;stroke-linejoin:round;stroke-miterlimit:4;stroke-dasharray:none;paint-order:fill markers stroke"
             d="m -3733.4067,1230.6317 c -2.6406,-0.9502 -6.1647,-2.5704 -7.8312,-3.6003 -5.0378,-3.1136 -11.4288,-10.6747 -14.4967,-17.151 l -2.8981,-6.1176 -0.2954,-23.4302 -0.2955,-23.4302 h 15.4515 15.4515 l 0.3911,29.3446 c 0.3685,27.648 0.5211,29.8313 2.6384,37.7613 l 2.2473,8.4167 -2.7809,-0.033 c -1.5295,-0.018 -4.9414,-0.8103 -7.582,-1.7605 z"
             id="path2542"
             transform="scale(0.26458333)" />
        </g>
      </g>
    </g>
  </g>
</svg>
